<svg viewBox="0 0 48 48" xmlns="http://www.w3.org/2000/svg" xmlns:xlink="http://www.w3.org/1999/xlink" width="48.000000" height="48.000000" fill="none">
	<rect id="Property 1=Goal" width="48.000000" height="48.000000" x="0.000000" y="0.000000" fill="rgb(255,255,255)" fill-opacity="0" />
	<g id="Group">
		<path id="Vector" d="M11.5231 36.6826L1.84265 36.6826C1.06603 36.6826 0.436401 37.3122 0.436401 38.0889L0.436401 46.5939C0.436401 47.3705 1.06603 48.0001 1.84265 48.0001L12.9294 48.0001L12.9294 38.0889C12.9293 37.3122 12.2998 36.6826 11.5231 36.6826Z" fill="rgb(90,115,239)" fill-rule="nonzero" />
		<path id="Vector" d="M25.4224 28.8076L17.1481 28.8076C16.3714 28.8076 15.7418 29.4372 15.7418 30.2139L15.7418 48.0001L26.8286 48.0001L26.8286 30.2139C26.8286 29.4372 26.199 28.8076 25.4224 28.8076Z" fill="rgb(90,115,239)" fill-rule="nonzero" />
		<path id="Vector" d="M44.7938 7.59469L47.6279 4.51875C48.0066 4.10813 48.106 3.51281 47.882 3.00187C47.6579 2.49 47.1526 2.16 46.5938 2.16L37.5283 2.16L37.5283 1.40625C37.5283 0.63 36.8992 0 36.1221 0C35.3458 0 34.7158 0.63 34.7158 1.40625L34.7158 17.8125L31.0474 17.8125C30.2707 17.8125 29.6411 18.4421 29.6411 19.2188L29.6411 48L40.967 48C41.7441 48 42.3732 47.37 42.3732 46.5938L42.3732 19.2188C42.3732 18.4425 41.7441 17.8125 40.967 17.8125L37.5283 17.8125L37.5283 12.7809L46.5938 12.7809C47.1629 12.7809 47.6757 12.4378 47.8932 11.9119C48.1107 11.3859 47.9898 10.7803 47.5866 10.3791L44.7938 7.59469Z" fill="rgb(90,115,239)" fill-rule="nonzero" />
		<path id="Vector" d="M23.8642 12.0733C24.2093 12.7692 25.0528 13.0534 25.7487 12.7084C26.4445 12.3633 26.7289 11.5196 26.3838 10.8238C23.8344 5.68278 24.0923 6.20103 24.0552 6.13119C23.791 5.63188 23.2472 5.33038 22.6681 5.39038C22.6642 5.39075 22.6601 5.3916 22.6561 5.39207C22.5411 5.405 22.8483 5.34472 17.522 6.4656C16.7619 6.62553 16.2756 7.37132 16.4354 8.13135C16.5748 8.79369 17.1592 9.24828 17.8101 9.24828C18.0058 9.24828 17.8797 9.2645 20.353 8.744C18.5089 12.3637 16.1088 15.6624 13.1942 18.5772C9.62204 22.1494 5.47173 24.95 0.858575 26.9011C0.143262 27.2038 -0.191332 28.0288 0.1112 28.7441C0.413918 29.46 1.23939 29.7938 1.95414 29.4915C6.90254 27.3986 11.3533 24.3956 15.1828 20.5659C18.304 17.4447 20.8758 13.9117 22.8528 10.0342L23.8642 12.0733Z" fill="rgb(90,115,239)" fill-rule="nonzero" />
	</g>
</svg>
