<svg viewBox="0 0 48 48" xmlns="http://www.w3.org/2000/svg" xmlns:xlink="http://www.w3.org/1999/xlink" width="48.000000" height="48.000000" fill="none">
	<rect id="Property 1=Suitcase" width="48.000000" height="48.000000" x="0.000000" y="0.000000" fill="rgb(255,255,255)" fill-opacity="0" />
	<g id="Group">
		<path id="Vector" d="M42.8438 11.3438L40.5 11.3438L40.5 44.1562L42.8438 44.1562C45.6869 44.1562 48 41.8432 48 39L48 16.5C48 13.6568 45.6869 11.3438 42.8438 11.3438Z" fill="rgb(90,115,239)" fill-rule="nonzero" />
		<path id="Vector" d="M0 16.5L0 39C0 41.8432 2.31309 44.1562 5.15625 44.1562L7.5 44.1562L7.5 11.3438L5.15625 11.3438C2.31309 11.3438 0 13.6568 0 16.5Z" fill="rgb(90,115,239)" fill-rule="nonzero" />
		<path id="Vector" d="M32.9062 8.0625C32.9062 5.73628 31.0137 3.84375 28.6875 3.84375L19.3125 3.84375C16.9863 3.84375 15.0938 5.73628 15.0938 8.0625L15.0938 11.3438L10.3125 11.3438L10.3125 44.1562L37.6875 44.1562L37.6875 11.3438L32.9062 11.3438L32.9062 8.0625ZM26.9796 30.8428L20.4844 34.5928C19.8118 34.9811 18.9517 34.7507 18.5634 34.0781L13.4072 25.1472C13.1858 24.7639 13.1579 24.2988 13.3318 23.8917L14.8365 20.3693C14.2244 19.5325 13.4029 18.0765 13.4185 16.3001C13.4186 16.2931 13.4187 16.2862 13.4189 16.279C13.4483 15.038 13.8361 13.9041 14.6042 12.8126C14.9626 12.3034 15.4028 11.8135 15.9211 11.3437L17.9062 11.3437L17.9062 8.0625C17.9062 7.28709 18.5371 6.65625 19.3125 6.65625L28.6875 6.65625C29.4629 6.65625 30.0938 7.28709 30.0938 8.0625L30.0938 11.3438L21.1188 11.3438C18.8602 12.394 16.2922 14.0803 16.2308 16.3356C16.2254 17.4059 16.8103 18.3311 17.1738 18.8022L21.2885 19.298C21.7279 19.3509 22.1167 19.6077 22.3381 19.991L27.4943 28.9218C27.8827 29.5944 27.6521 30.4545 26.9796 30.8428ZM34.7812 21.1875C34.7812 23.5137 32.8887 25.4062 30.5625 25.4062C28.2363 25.4062 26.3438 23.5137 26.3438 21.1875C26.3438 18.8613 28.2363 16.9688 30.5625 16.9688C32.8887 16.9688 34.7812 18.8613 34.7812 21.1875Z" fill="rgb(90,115,239)" fill-rule="nonzero" />
		<path id="Vector" d="M17.3452 21.6558L16.1943 24.3499L20.2959 31.454L24.3555 29.1103L20.2539 22.0061L17.3452 21.6558Z" fill="rgb(90,115,239)" fill-rule="nonzero" />
		<path id="Vector" d="M30.5625 22.5938C31.3391 22.5938 31.9688 21.9641 31.9688 21.1875C31.9688 20.4109 31.3391 19.7812 30.5625 19.7812C29.7859 19.7812 29.1562 20.4109 29.1562 21.1875C29.1562 21.9641 29.7859 22.5938 30.5625 22.5938Z" fill="rgb(90,115,239)" fill-rule="evenodd" />
	</g>
</svg>
